# xmcd CD database file
#
# Track frame offsets:
#	150
#	24207
#	41368
#	59814
#	74834
#	91772
#	110164
#	125267
#	144238
#	165508
#	179591
#	197320
#
# Disc length: 2851 seconds
#
# Revision: 0
# Processed by: cddbd v1.5.1PL0 Copyright (c) Steve Scherf et al.
# Submitted via: CDex 1.40Beta9
#
DISCID=a30b210c
DTITLE=Matt Mead Band - Paradise
DYEAR=2004
DGENRE=Country
TTITLE0=Paradise
TTITLE1=This Time I'm Gone
TTITLE2=Laughin'
TTITLE3=Cheap Tequila
TTITLE4=Back There
TTITLE5=Heavy
TTITLE6=Take It To The Grave
TTITLE7=Where I Belong
TTITLE8=No Place Like Home
TTITLE9=Cest La Vi
TTITLE10=Lost
TTITLE11=Hang On
EXTD=YEAR: 2004 ID3G: 2
EXTT0=
EXTT1=
EXTT2=
EXTT3=
EXTT4=
EXTT5=
EXTT6=
EXTT7=
EXTT8=
EXTT9=
EXTT10=
EXTT11=
PLAYORDER=
